<?xml version="1.0" encoding="iso-8859-1"?>
<!-- Generator: Adobe Illustrator 18.0.0, SVG Export Plug-In . SVG Version: 6.00 Build 0)  -->
<!DOCTYPE svg PUBLIC "-//W3C//DTD SVG 1.1//EN" "http://www.w3.org/Graphics/SVG/1.1/DTD/svg11.dtd">
<svg version="1.1" id="Capa_1" xmlns="http://www.w3.org/2000/svg" xmlns:xlink="http://www.w3.org/1999/xlink" x="0px" y="0px"
	 viewBox="0 0 401.98 401.98" style="enable-background:new 0 0 401.98 401.98;" xml:space="preserve">
<g>
	<path d="M200.99,0C90.164,0,0,90.164,0,200.99s90.164,200.99,200.99,200.99s200.99-90.164,200.99-200.99S311.816,0,200.99,0z
		 M307.688,45.087l-3.353,0.474l-32.01-19.57C284.836,31.11,296.68,37.53,307.688,45.087z M92.062,47.327l64.355-5.905
		l-4.335,49.859l-69.23,38.196l-27.259-26.211L92.062,47.327z M23.466,265.848l0.483,0.186c0.71,0.274,1.441,0.404,2.159,0.404
		c2.408,0,4.68-1.46,5.599-3.841c1.194-3.092-0.345-6.565-3.437-7.759l-9.495-3.665C14.368,235.186,12,218.36,12,200.99
		c0-47.227,17.412-90.463,46.154-123.626l-15.327,23.509c-1.573,2.413-1.209,5.604,0.868,7.602l34.025,32.717
		c1.146,1.102,2.645,1.675,4.161,1.675c0.99,0,1.987-0.245,2.896-0.746l75.902-41.877c1.751-0.967,2.906-2.742,3.079-4.734
		l5.234-60.198c0.154-1.771-0.485-3.519-1.745-4.772s-3.012-1.885-4.781-1.722l-48.503,4.45
		c25.997-13.544,55.513-21.225,86.789-21.264l-22.548,10.054c-3.026,1.349-4.386,4.896-3.037,7.923
		c0.996,2.232,3.187,3.559,5.483,3.559c0.816,0,1.646-0.168,2.44-0.522l26.263-11.71c3.026-1.349,4.386-4.896,3.037-7.923
		c-0.171-0.384-0.378-0.74-0.614-1.068c6.191,0.35,12.305,0.993,18.324,1.928l69.812,42.68c0.947,0.579,2.03,0.881,3.129,0.881
		c0.28,0,0.561-0.02,0.84-0.06l17.348-2.454c34.899,28.852,59.297,69.974,66.524,116.694l-5.878,7.728l-16.966-2.351
		c-3.29-0.446-6.312,1.838-6.767,5.12c-0.455,3.282,1.837,6.312,5.12,6.767l16.077,2.228l9.271,32.224
		c-4.199,34.905-17.945,66.912-38.551,93.325l-46.808-1.635c-1.158-0.046-2.303,0.256-3.296,0.852l-71.977,43.187
		c-2.058,1.234-3.182,3.575-2.858,5.953l3.077,22.633c-8.888,1.287-17.969,1.966-27.208,1.966
		C119.555,389.98,49.986,338.207,23.466,265.848z M240.023,385.917l-2.479-18.234l67.063-40.238l35.575,1.242
		C314.018,357.184,279.243,377.649,240.023,385.917z"/>
	<path d="M303.04,98.325c3.313,0,6-2.687,6-6V66.696c0-3.313-2.687-6-6-6s-6,2.687-6,6v25.629
		C297.04,95.639,299.727,98.325,303.04,98.325z"/>
	<path d="M303.04,258.983c-3.313,0-6,2.687-6,6v40.83c0,3.313,2.687,6,6,6s6-2.687,6-6v-40.83
		C309.04,261.67,306.354,258.983,303.04,258.983z"/>
	<path d="M303.041,255.412c1.958,0,3.854-0.961,4.995-2.673l44.494-66.742c1.261-1.891,1.345-4.332,0.217-6.305l-41.877-73.284
		c-1.402-2.454-4.326-3.594-7.021-2.743l-78.52,24.864c-2.427,0.769-4.104,2.984-4.186,5.529l-2.617,82.445
		c-0.079,2.49,1.389,4.771,3.689,5.729l78.52,32.717C301.485,255.262,302.268,255.412,303.041,255.412z M233.003,138.687
		l69.851-22.119l37.634,65.858l-39.697,59.547l-70.139-29.225L233.003,138.687z"/>
	<path d="M158.078,258.562l-70.667-39.26c-2.28-1.266-5.116-0.917-7.018,0.868l-41.877,39.26c-2.106,1.975-2.508,5.17-0.955,7.604
		l48.42,75.901c1.106,1.734,3.017,2.773,5.058,2.773c0.117,0,0.235-0.003,0.354-0.011l66.742-3.926
		c3.255-0.191,5.762-2.948,5.644-6.207l-2.618-71.976C161.084,261.489,159.915,259.582,158.078,258.562z M94.204,333.512
		l-43.848-68.733l35.051-32.861l63.883,35.49l2.281,62.729L94.204,333.512z"/>
	<path d="M173.271,258.76l39.888-27.094c2.741-1.861,3.454-5.593,1.592-8.334c-1.862-2.741-5.594-3.454-8.334-1.592l-39.888,27.094
		c-2.741,1.861-3.454,5.593-1.592,8.334c1.161,1.709,3.048,2.63,4.969,2.63C171.066,259.798,172.239,259.461,173.271,258.76z"/>
	<path d="M218.009,352.996l-42.783-16.808c-3.082-1.209-6.566,0.307-7.778,3.391c-1.212,3.085,0.306,6.567,3.391,7.779
		l42.783,16.808c0.72,0.282,1.462,0.417,2.192,0.417c2.395,0,4.657-1.444,5.586-3.808
		C222.612,357.69,221.094,354.208,218.009,352.996z"/>
	<path d="M168.912,108.184l41.187,23.313c0.934,0.528,1.949,0.779,2.95,0.779c2.091,0,4.123-1.096,5.227-3.045
		c1.632-2.884,0.618-6.545-2.266-8.178L174.823,97.74c-2.883-1.633-6.544-0.617-8.177,2.266
		C165.014,102.89,166.028,106.551,168.912,108.184z"/>
	<path d="M81.879,211.986c3.313,0,6-2.687,6-6v-50.56c0-3.313-2.687-6-6-6s-6,2.687-6,6v50.56
		C75.879,209.3,78.566,211.986,81.879,211.986z"/>
</g>
<g>
</g>
<g>
</g>
<g>
</g>
<g>
</g>
<g>
</g>
<g>
</g>
<g>
</g>
<g>
</g>
<g>
</g>
<g>
</g>
<g>
</g>
<g>
</g>
<g>
</g>
<g>
</g>
<g>
</g>
</svg>
