<?xml version="1.0" encoding="iso-8859-1"?>
<!-- Generator: Adobe Illustrator 17.1.0, SVG Export Plug-In . SVG Version: 6.00 Build 0)  -->
<!DOCTYPE svg PUBLIC "-//W3C//DTD SVG 1.1//EN" "http://www.w3.org/Graphics/SVG/1.1/DTD/svg11.dtd">
<svg xmlns="http://www.w3.org/2000/svg" xmlns:xlink="http://www.w3.org/1999/xlink" version="1.1" id="Capa_1" x="0px" y="0px" viewBox="0 0 273.829 273.829" style="enable-background:new 0 0 273.829 273.829;" xml:space="preserve" width="512px" height="512px">
<g>
	<path d="M226.988,157.146c-1.394,2.394-3.907,3.729-6.489,3.729c-1.281,0-2.579-0.328-3.766-1.019   c-3.58-2.084-4.793-6.676-2.71-10.255c0.227-0.393,22.614-39.808,10.587-77.437l-81.016,33.932   c-0.271,2.552-21.948,69.619-21.948,69.619c24.627,20.729,44.398,46.812,57.637,76.28c3.395,7.557,0.021,16.435-7.536,19.829   c-1.995,0.896-4.084,1.321-6.138,1.321c-5.726,0-11.193-3.296-13.691-8.857c-10.955-24.385-27.104-46.083-47.175-63.574   c-5.479,24.808-19.626,47.174-40.486,62.861l-9.627,7.24c-2.7,2.031-5.866,3.013-9.004,3.013c-4.555,0-9.052-2.065-12-5.985   c-4.979-6.62-3.648-16.024,2.973-21.004l9.627-7.24c20.828-15.663,32.393-40.548,30.937-66.567   c-0.009-0.154,0.001-0.304-0.003-0.457c-0.008-0.318-0.017-0.636-0.005-0.955c0.008-0.209,0.031-0.413,0.047-0.62   c0.022-0.282,0.043-0.564,0.081-0.846c0.028-0.208,0.07-0.412,0.106-0.617c0.033-2.178,0.383-4.388,1.087-6.568L89.977,127.3   l-24.704,9.818c-1.795,0.714-3.674,1.061-5.537,1.061c-3.758,0.001-7.455-1.412-10.29-4.084c-4.241-3.996-5.783-10.087-3.956-15.62   l10.864-32.898c2.598-7.866,11.076-12.139,18.947-9.539c7.866,2.598,12.137,11.08,9.539,18.947l-0.789,2.389l26.325-10.462   c0.909-0.436,1.848-0.812,2.809-1.123l96.533-39.929c-18.216-21.493-43.599-31.206-43.935-31.331   c-3.88-1.45-5.85-5.771-4.399-9.651c1.45-3.88,5.769-5.849,9.651-4.399c1.705,0.637,35.116,13.432,55.823,43.025   c3.558,1.468,6.555,4.295,8.143,8.133c1.097,2.652,1.36,5.435,0.939,8.076c0.729,1.689,1.417,3.413,2.049,5.182   C254.04,109.835,228.1,155.236,226.988,157.146z M115.713,73.645c15.637,0,28.312-12.676,28.312-28.312S131.35,17.02,115.713,17.02   S87.401,29.696,87.401,45.332S100.077,73.645,115.713,73.645z" fill="#FFFFFF"/>
</g>
<g>
</g>
<g>
</g>
<g>
</g>
<g>
</g>
<g>
</g>
<g>
</g>
<g>
</g>
<g>
</g>
<g>
</g>
<g>
</g>
<g>
</g>
<g>
</g>
<g>
</g>
<g>
</g>
<g>
</g>
</svg>
