<?xml version="1.0" encoding="iso-8859-1"?>
<!-- Generator: Adobe Illustrator 16.0.0, SVG Export Plug-In . SVG Version: 6.00 Build 0)  -->
<!DOCTYPE svg PUBLIC "-//W3C//DTD SVG 1.1//EN" "http://www.w3.org/Graphics/SVG/1.1/DTD/svg11.dtd">
<svg xmlns="http://www.w3.org/2000/svg" xmlns:xlink="http://www.w3.org/1999/xlink" version="1.1" id="Capa_1" x="0px" y="0px" width="512px" height="512px" viewBox="0 0 545.248 545.248" style="enable-background:new 0 0 545.248 545.248;" xml:space="preserve">
<g>
	<g>
		<path d="M300.902,208.729c0,3.519,1.902,6.789,5.785,8.816v0.125c-4.37,1.913-7.144,5.24-7.144,10.06    c0,5.422,4.686,11.169,14.87,11.169c9.313,0,15.414-4.934,15.414-12.221c0-5.125-3.451-8.453-7.41-9.936v-0.182    c4.025-1.979,5.871-5.365,5.871-8.835c0-4.868-3.893-10.299-13.272-10.299C307.003,197.436,300.902,201.939,300.902,208.729z     M314.596,203.785c3.452,0,4.867,2.467,4.867,5.001c0,2.458-1.913,4.437-4.074,5.059c-3.213-0.995-5.612-2.716-5.612-5.431    C309.776,205.946,311.392,203.785,314.596,203.785z M313.974,220.816c3.634,0.995,6.292,3.089,6.292,6.607    c0,2.84-2.218,5.001-5.488,5.001c-3.52,0-5.737-2.716-5.671-5.623C309.106,223.895,310.885,221.676,313.974,220.816z" fill="#FFFFFF"/>
		<path d="M366.501,155.428c-12.823-22.099-31.604-34.77-51.523-34.77c-19.822,0-38.021,11.972-51.235,33.689L86.884,444.884    c-13.426,22.061-15.539,43.605-5.958,60.655s29.089,26.44,54.908,26.44H483.67c25.762,0,45.384-9.429,55.243-26.546    c9.858-17.117,8.166-38.814-4.763-61.095L366.501,155.428z M315.714,317.56c-0.525,3.337-1.022,6.703-1.022,10.184    c0,19.813,8.749,37.552,22.548,49.678c-7.047-2.554-14.611-4.017-22.538-4.017c-8.225,0-16.056,1.559-23.313,4.303    c2.906-2.534,5.661-5.24,8.108-8.224c-53.187-6.723-86.703-25.742-106.87-43.127l13.043-21.43    c17.117,15.912,48.999,35.582,104.872,40.947c0.431,0.038,0.774,0.287,1.195,0.363c1.73-5.9,2.945-12.011,2.945-18.484    c0-17.939-7.162-34.177-18.742-46.101c5.947,1.75,12.23,2.734,18.742,2.734c6.598,0,12.967-0.994,18.981-2.792    c-2.907,2.974-5.613,6.139-7.927,9.62c11.217,15.318,43.174,47.554,117.217,54.659c0.383,0.038,0.707,0.229,1.071,0.325    l16.6,28.61c-4.36-0.908-8.883-1.387-13.521-1.387c-8.225,0-16.056,1.56-23.313,4.304c2.906-2.534,5.661-5.24,8.108-8.224    C369.542,361.595,334.17,336.799,315.714,317.56z M204.818,377.421c-7.047-2.554-14.611-4.026-22.548-4.026    c-7.114,0-13.904,1.243-20.32,3.318l21.669-35.602C186.573,355.484,194.213,368.097,204.818,377.421z M355.771,218.158    c0,22.701-18.389,41.09-41.08,41.09c-22.702,0-41.081-18.398-41.081-41.09c0-22.683,18.389-41.09,41.081-41.09    C337.383,177.067,355.771,195.475,355.771,218.158z M378.913,233.964l17.04,29.366c-4.839-1.128-9.868-1.788-15.051-1.788    c-6.57,0-12.872,1.052-18.857,2.84C370.153,256.063,376.054,245.621,378.913,233.964z M267.232,264.277    c-5.948-1.759-12.23-2.735-18.752-2.735c-6.235,0-12.24,0.928-17.958,2.544l19.459-31.968    C252.64,244.474,258.741,255.538,267.232,264.277z M326.615,153.084c-3.872-0.708-7.851-1.128-11.924-1.128    c-3.893,0-7.679,0.401-11.39,1.042c3.825-2.362,7.756-3.653,11.676-3.653C318.87,149.336,322.8,150.675,326.615,153.084z     M105.932,491.473c-4.217-7.507-2.228-19.049,5.46-31.681l5.651-9.295c4.217,25.427,22.874,45.909,47.296,52.775h-28.506    C121.041,503.282,110.149,498.979,105.932,491.473z M514.041,491.109c-4.457,7.735-15.53,12.173-30.381,12.173h-18.934    c13.282-3.749,24.854-11.523,33.393-21.946c-62.357-7.879-97.738-32.675-116.194-51.915c-0.525,3.348-1.032,6.704-1.032,10.185    c0,30.342,20.435,55.854,48.271,63.677h-96.85c13.282-3.749,24.854-11.523,33.393-21.946    c-62.366-7.879-97.738-32.675-116.194-51.915c-0.526,3.348-1.023,6.704-1.023,10.185c0,30.342,20.435,55.854,48.272,63.677    h-96.869c13.283-3.749,24.863-11.523,33.393-21.946c-54.267-6.856-88.08-26.517-108.114-44.188l13.101-21.524    c16.801,16.103,48.817,36.604,106.058,42.104c0.431,0.048,0.775,0.277,1.195,0.363c1.731-5.9,2.945-12.021,2.945-18.484    c0-19.813-8.75-37.552-22.548-49.677c7.048,2.553,14.612,4.025,22.548,4.025c8.052,0,15.711-1.501,22.807-4.169    c-4.466,3.901-8.453,8.328-11.743,13.282c11.216,15.31,43.174,47.554,117.217,54.659c0.43,0.048,0.784,0.277,1.195,0.363    c1.73-5.9,2.945-12.021,2.945-18.484c0-19.813-8.75-37.552-22.539-49.677c7.048,2.553,14.611,4.016,22.539,4.016    c8.052,0,15.711-1.501,22.807-4.169c-4.466,3.901-8.454,8.329-11.753,13.282c11.198,15.281,43.061,47.411,116.768,54.611    l0.612,1.062C516.785,471.563,518.497,483.373,514.041,491.109z" fill="#FFFFFF"/>
		<polygon points="251.741,110.512 216.456,90.097 14.228,459.008 34.816,470.923   " fill="#FFFFFF"/>
		<path d="M1.194,482.78c-2.544,4.628-0.89,10.528,3.681,13.167l2.754,1.606c4.58,2.64,10.49,1.119,13.215-3.413l4.112-6.828    L5.029,475.78L1.194,482.78z" fill="#FFFFFF"/>
		<path d="M291.196,44.961c5.44-9.046,2.448-20.665-6.685-25.953l-5.527-3.194c-9.142-5.288-20.674-2.075-25.751,7.191    l-27.588,50.328L261.6,94.142L291.196,44.961z" fill="#FFFFFF"/>
	</g>
</g>
<g>
</g>
<g>
</g>
<g>
</g>
<g>
</g>
<g>
</g>
<g>
</g>
<g>
</g>
<g>
</g>
<g>
</g>
<g>
</g>
<g>
</g>
<g>
</g>
<g>
</g>
<g>
</g>
<g>
</g>
</svg>
