<?xml version="1.0" encoding="iso-8859-1"?>
<!-- Generator: Adobe Illustrator 19.0.0, SVG Export Plug-In . SVG Version: 6.00 Build 0)  -->
<svg xmlns="http://www.w3.org/2000/svg" xmlns:xlink="http://www.w3.org/1999/xlink" version="1.1" id="Capa_1" x="0px" y="0px" viewBox="0 0 59.976 59.976" style="enable-background:new 0 0 59.976 59.976;" xml:space="preserve" width="512px" height="512px">
<g>
	<g>
		<g>
			<path d="M18.998,20.868c2.671,0,5.183-1.04,7.071-2.929c3.899-3.899,3.899-10.243,0-14.143c-1.889-1.889-4.4-2.929-7.071-2.929     s-5.183,1.04-7.071,2.929c-3.899,3.899-3.899,10.243,0,14.143C13.815,19.828,16.327,20.868,18.998,20.868z M18.998,4.868     c0.553,0,1,0.447,1,1s-0.447,1-1,1c-2.206,0-4,1.794-4,4c0,0.553-0.447,1-1,1s-1-0.447-1-1     C12.998,7.56,15.689,4.868,18.998,4.868z" fill="#FFFFFF"/>
			<path d="M12.258,33.394c0.787,1.691,0.998,3.423,0.608,5.006c-0.744,3.021-2.557,5.295-5.706,7.159     c-1.154,0.685-2.662,1.61-4.084,2.704l-1.59,1.224c-0.67,0.516-1.085,1.294-1.14,2.137s0.257,1.668,0.854,2.264l5.229,5.229     c0.555,0.555,1.291,0.859,2.074,0.859c0.938,0,1.796-0.432,2.355-1.184l1.646-2.213c0.797-1.073,1.588-2.295,2.417-3.734     c1.802-3.13,3.99-4.954,6.886-5.741c1.535-0.418,3.277-0.241,4.981,0.496c2.542,1.1,5.149,1.657,7.752,1.657     c0.356,0,0.713-0.011,1.069-0.032L10.447,24.062C10.256,27.202,10.841,30.35,12.258,33.394z" fill="#FFFFFF"/>
			<path d="M53.717,5.927C49.895,2.104,44.519,0,38.577,0c-3.738,0-7.528,0.826-11.11,2.383c0.009,0.009,0.018,0.016,0.027,0.024     c4.679,4.679,4.679,12.292,0,16.971c-2.267,2.267-5.279,3.515-8.485,3.515c-2.926,0-5.685-1.05-7.868-2.955     c-0.152,0.533-0.278,1.069-0.384,1.605l27.354,27.354c4.447-0.88,8.82-3.382,12.817-7.378     C61.329,31.116,62.607,14.817,53.717,5.927z" fill="#FFFFFF"/>
		</g>
	</g>
</g>
<g>
</g>
<g>
</g>
<g>
</g>
<g>
</g>
<g>
</g>
<g>
</g>
<g>
</g>
<g>
</g>
<g>
</g>
<g>
</g>
<g>
</g>
<g>
</g>
<g>
</g>
<g>
</g>
<g>
</g>
</svg>
